<svg xmlns="http://www.w3.org/2000/svg" width="20" height="15" viewBox="0 0 20 15" fill="none">
  <path d="M18.7456 4.73211C18.8911 4.61642 19.1076 4.72465 19.1076 4.90751V12.5393C19.1076 13.5283 18.3052 14.3307 17.3162 14.3307H1.79134C0.802369 14.3307 0 13.5283 0 12.5393V4.91125C0 4.72465 0.212721 4.62015 0.361999 4.73584C1.19796 5.3852 2.30634 6.20996 6.11293 8.97534C6.90037 9.55006 8.22895 10.7592 9.55379 10.7517C10.8861 10.7629 12.2408 9.52767 12.9984 8.97534C16.805 6.20996 17.9096 5.38147 18.7456 4.73211ZM9.55379 9.55379C10.4196 9.56872 11.6661 8.46406 12.293 8.00876C17.2453 4.4149 17.6223 4.10141 18.7642 3.20574C18.9807 3.03781 19.1076 2.77657 19.1076 2.50041V1.79134C19.1076 0.802369 18.3052 0 17.3162 0H1.79134C0.802369 0 0 0.802369 0 1.79134V2.50041C0 2.77657 0.126886 3.03407 0.343339 3.20574C1.48532 4.09768 1.86224 4.4149 6.81454 8.00876C7.44151 8.46406 8.68798 9.56872 9.55379 9.55379Z" fill="url(#paint0_linear_495_513)"/>
  <defs>
    <linearGradient id="paint0_linear_495_513" x1="1" y1="-4.5" x2="46" y2="57.5" gradientUnits="userSpaceOnUse">
      <stop stop-color="#577C2E"/>
      <stop offset="0.772847" stop-color="#3D5D23"/>
    </linearGradient>
  </defs>
</svg>