<svg width="29" height="30" viewBox="0 0 29 30" fill="none" xmlns="http://www.w3.org/2000/svg">
<path fill-rule="evenodd" clip-rule="evenodd" d="M8.55463 0.88681C10.0927 0.816312 10.583 0.800293 14.4995 0.800293C18.4167 0.800293 18.9062 0.817111 20.4434 0.88681C21.9791 0.956508 23.0278 1.20084 23.945 1.55732C24.9071 1.91952 25.7785 2.48703 26.4988 3.22037C27.2323 3.94059 27.7999 4.81214 28.1619 5.77422C28.5184 6.69145 28.7619 7.74008 28.8324 9.27494C28.903 10.813 28.919 11.3033 28.919 15.2198C28.919 19.1362 28.9022 19.6265 28.8324 21.1647C28.7627 22.6994 28.5184 23.7481 28.1619 24.6653C27.7935 25.6131 27.2999 26.4181 26.4988 27.2192C25.7787 27.9526 24.9071 28.5202 23.945 28.8822C23.0278 29.2387 21.9791 29.4822 20.4444 29.5527C18.9062 29.6233 18.4159 29.6393 14.4995 29.6393C10.583 29.6393 10.0927 29.6225 8.55463 29.5527C7.01977 29.483 5.97115 29.2387 5.05391 28.8822C4.10622 28.5138 3.30114 28.0202 2.50006 27.2192C1.76659 26.499 1.19904 25.6274 0.83701 24.6653C0.480534 23.7481 0.237002 22.6994 0.166503 21.1647C0.0960053 19.6265 0.0799866 19.137 0.0799866 15.2198C0.0799866 11.3025 0.0968049 10.813 0.166503 9.27575C0.236202 7.74008 0.480534 6.69145 0.83701 5.77422C1.19921 4.8122 1.76673 3.9407 2.50006 3.22037C3.22028 2.4869 4.09182 1.91935 5.05391 1.55732C5.97115 1.20084 7.01977 0.957308 8.55463 0.88681ZM20.3265 3.48232C18.806 3.41342 18.3495 3.3982 14.4995 3.3982C10.6495 3.3982 10.1929 3.41342 8.6724 3.48232C7.2665 3.54641 6.50307 3.78112 5.99517 3.97899C5.32227 4.24014 4.84162 4.55256 4.33693 5.05724C3.83306 5.56192 3.51983 6.04258 3.25868 6.71548C3.06081 7.22337 2.8261 7.98681 2.76201 9.39271C2.69311 10.9132 2.67789 11.3698 2.67789 15.2198C2.67789 19.0698 2.69311 19.5264 2.76201 21.0468C2.8261 22.4527 3.06081 23.2162 3.25868 23.7241C3.48968 24.3505 3.85814 24.917 4.33693 25.3824C4.80216 25.8611 5.36881 26.2296 5.99517 26.4606C6.50307 26.6585 7.2665 26.8931 8.6724 26.9572C10.1929 27.0262 10.6487 27.0414 14.4995 27.0414C18.3503 27.0414 18.806 27.0262 20.3265 26.9572C21.7324 26.8931 22.4959 26.6585 23.0038 26.4606C23.6767 26.1994 24.1574 25.8871 24.6621 25.3824C25.1408 24.9171 25.5093 24.3505 25.7402 23.7241C25.9382 23.2162 26.1728 22.4527 26.2369 21.0468C26.3059 19.5264 26.3211 19.0698 26.3211 15.2198C26.3211 11.3698 26.3059 10.9132 26.2369 9.39271C26.1728 7.98681 25.9382 7.22337 25.7402 6.71548C25.4791 6.04258 25.1667 5.56192 24.6621 5.05724C24.1574 4.55337 23.6767 4.24014 23.0038 3.97899C22.4959 3.78112 21.7324 3.54641 20.3265 3.48232ZM12.6584 19.6648C13.2421 19.9066 13.8676 20.031 14.4995 20.031C15.7756 20.031 16.9993 19.5241 17.9016 18.6219C18.804 17.7196 19.3109 16.4958 19.3109 15.2198C19.3109 13.9438 18.804 12.72 17.9016 11.8177C16.9993 10.9154 15.7756 10.4085 14.4995 10.4085C13.8676 10.4085 13.2421 10.5329 12.6584 10.7747C12.0745 11.0165 11.5442 11.3709 11.0974 11.8177C10.6506 12.2644 10.2962 12.7948 10.0544 13.3785C9.81266 13.9623 9.68822 14.5879 9.68822 15.2198C9.68822 15.8516 9.81266 16.4773 10.0544 17.061C10.2962 17.6447 10.6506 18.1751 11.0974 18.6219C11.5442 19.0686 12.0745 19.4231 12.6584 19.6648ZM9.25871 9.97896C10.6487 8.58902 12.5338 7.80815 14.4995 7.80815C16.4652 7.80815 18.3504 8.58902 19.7403 9.97896C21.1302 11.3689 21.9111 13.2541 21.9111 15.2198C21.9111 17.1854 21.1302 19.0706 19.7403 20.4606C18.3504 21.8505 16.4652 22.6314 14.4995 22.6314C12.5338 22.6314 10.6487 21.8505 9.25871 20.4606C7.86876 19.0706 7.0879 17.1854 7.0879 15.2198C7.0879 13.2541 7.86876 11.3689 9.25871 9.97896ZM23.5545 8.91241C23.883 8.58384 24.0676 8.13823 24.0676 7.67358C24.0676 7.20892 23.883 6.7633 23.5545 6.43475C23.2259 6.10619 22.7803 5.92161 22.3156 5.92161C21.8511 5.92161 21.4054 6.10619 21.0769 6.43475C20.7482 6.7633 20.5637 7.20892 20.5637 7.67358C20.5637 8.13823 20.7482 8.58384 21.0769 8.91241C21.4054 9.24096 21.8511 9.42554 22.3156 9.42554C22.7803 9.42554 23.2259 9.24096 23.5545 8.91241Z" fill="white"/>
</svg>
