<svg width="26" height="30" viewBox="0 0 26 30" fill="none" xmlns="http://www.w3.org/2000/svg">
<path d="M22.4814 6.86783C22.285 6.76762 22.0938 6.65777 21.9086 6.53869C21.3698 6.18707 20.8758 5.77276 20.4373 5.30468C19.34 4.06528 18.9302 2.80793 18.7792 1.92761H18.7853C18.6592 1.1969 18.7113 0.724121 18.7192 0.724121H13.7215V19.8016C13.7215 20.0577 13.7215 20.3109 13.7106 20.561C13.7106 20.5921 13.7076 20.6209 13.7057 20.6544C13.7057 20.6681 13.7057 20.6825 13.7027 20.6969V20.7076C13.65 21.3921 13.4278 22.0534 13.0555 22.6332C12.6831 23.213 12.1722 23.6935 11.5676 24.0326C10.9374 24.3865 10.2247 24.5722 9.49976 24.5713C7.17125 24.5713 5.28407 22.6969 5.28407 20.3821C5.28407 18.0673 7.17125 16.1929 9.49976 16.1929C9.94053 16.1925 10.3786 16.261 10.7977 16.3958L10.8037 11.3724C9.5315 11.2102 8.239 11.31 7.00779 11.6655C5.77658 12.0211 4.63337 12.6247 3.6503 13.4382C2.78889 14.1771 2.0647 15.0587 1.51032 16.0433C1.29936 16.4024 0.503383 17.8452 0.406994 20.187C0.346371 21.5162 0.750723 22.8932 0.943502 23.4623V23.4743C1.06475 23.8094 1.53457 24.9531 2.30023 25.9172C2.91763 26.6905 3.64707 27.3699 4.46506 27.9334V27.9214L4.47719 27.9334C6.89663 29.5564 9.57917 29.4498 9.57917 29.4498C10.0435 29.4313 11.5991 29.4498 13.3657 28.6234C15.325 27.7071 16.4404 26.3421 16.4404 26.3421C17.153 25.5264 17.7197 24.5969 18.116 23.5934C18.5683 22.4198 18.7192 21.0123 18.7192 20.4497V10.3287C18.7798 10.3646 19.5873 10.8918 19.5873 10.8918C19.5873 10.8918 20.7507 11.6279 22.5657 12.1073C23.8679 12.4484 25.6223 12.5202 25.6223 12.5202V7.62248C25.0076 7.68831 23.7594 7.49681 22.4814 6.86783Z" fill="white"/>
</svg>
