<svg width="33" height="24" viewBox="0 0 33 24" fill="none" xmlns="http://www.w3.org/2000/svg">
<path d="M27.7828 2.01227C25.6751 1.07975 23.4304 0.392638 21.0656 0C20.7743 0.490798 20.4316 1.16155 20.2089 1.70143C17.707 1.34151 15.2224 1.34151 12.772 1.70143C12.5321 1.16155 12.1893 0.490798 11.898 0C9.53331 0.392638 7.28853 1.07975 5.18084 2.01227C0.931182 8.13088 -0.21691 14.1023 0.348568 19.9755C3.17596 21.9877 5.90054 23.1984 8.59084 24C9.25913 23.1329 9.84175 22.2004 10.3558 21.2352C9.37908 20.8916 8.45376 20.4499 7.57984 19.9427C7.81974 19.7791 8.0425 19.5992 8.26526 19.4356C13.6287 21.8241 19.4377 21.8241 24.7327 19.4356C24.9554 19.6155 25.1782 19.7791 25.4181 19.9427C24.5442 20.4499 23.6017 20.8753 22.6421 21.2352C23.1562 22.2004 23.7388 23.1329 24.4071 24C27.0974 23.1984 29.8391 21.9877 32.6494 19.9755C33.3177 13.1534 31.5013 7.24744 27.8171 2.01227H27.7828ZM11.0755 16.3763C9.46476 16.3763 8.14531 14.953 8.14531 13.2025C8.14531 11.4519 9.43049 10.0286 11.0755 10.0286C12.7205 10.0286 14.0229 11.4519 14.0057 13.2025C14.0057 14.9366 12.7205 16.3763 11.0755 16.3763ZM21.8881 16.3763C20.2774 16.3763 18.9579 14.953 18.9579 13.2025C18.9579 11.4519 20.2431 10.0286 21.8881 10.0286C23.5332 10.0286 24.8355 11.4519 24.8184 13.2025C24.8184 14.9366 23.5332 16.3763 21.8881 16.3763Z" fill="white"/>
</svg>
