<svg xmlns="http://www.w3.org/2000/svg" xmlns:xlink="http://www.w3.org/1999/xlink" version="1.1" id="Layer_1" x="0px" y="0px" viewBox="0 0 1904.8 2500" style="enable-background:new 0 0 1904.8 2500;" xml:space="preserve">
<style type="text/css">
	.st0{fill:#673AB7;}
	.st1{fill:#F1F1F1;}
	.st2{fill:url(#SVGID_1_);}
	.st3{fill:#B39DDB;}
	.st4{fill:#FFFFFF;fill-opacity:0.2;}
	.st5{fill:#311B92;fill-opacity:0.2;}
	.st6{fill:#311B92;fill-opacity:0.1;}
	.st7{fill:url(#SVGID_2_);}
</style>
<g>
	<path class="st0" d="M1190.5,0H178.6C83.3,0,0,83.3,0,178.6v2142.9c0,95.2,83.3,178.6,178.6,178.6h1547.6   c95.2,0,178.6-83.3,178.6-178.6V714.3l-416.7-297.6L1190.5,0z"/>
	<path class="st1" d="M714.3,1845.2h714.3v-119H714.3V1845.2z M714.3,1071.4v119h714.3v-119H714.3z M607.1,1131   c0,47.6-35.7,95.2-95.2,95.2s-95.2-35.7-95.2-95.2c0-59.5,35.7-95.2,95.2-95.2S607.1,1083.3,607.1,1131z M607.1,1464.3   c0,47.6-35.7,95.2-95.2,95.2s-95.2-35.7-95.2-95.2c0-59.5,35.7-95.2,95.2-95.2S607.1,1416.7,607.1,1464.3z M607.1,1785.7   c0,47.6-35.7,95.2-95.2,95.2s-95.2-35.7-95.2-95.2c0-59.5,35.7-95.2,95.2-95.2S607.1,1738.1,607.1,1785.7z M714.3,1547.6h714.3   v-119.1H714.3L714.3,1547.6L714.3,1547.6z"/>
	<path class="st3" d="M1190.5,0v535.7c0,95.2,83.3,178.6,178.6,178.6h535.7L1190.5,0z"/>
	<path class="st4" d="M178.6,0C83.3,0,0,83.3,0,178.6v11.9C0,95.2,83.3,11.9,178.6,11.9h1011.9V0H178.6L178.6,0z"/>
	
	
	
		
	<path class="st7" d="M1190.5,0H178.6C83.3,0,0,83.3,0,178.6v2142.9c0,95.2,83.3,178.6,178.6,178.6h1547.6   c95.2,0,178.6-83.3,178.6-178.6V714.3L1190.5,0z"/>
</g>
</svg>